<svg width="1166" height="326" viewBox="0 0 1166 326" fill="none" xmlns="http://www.w3.org/2000/svg">
<g clip-path="url(#clip0_2023_2)">
<mask id="mask0_2023_2" style="mask-type:luminance" maskUnits="userSpaceOnUse" x="0" y="38" width="230" height="230">
<path d="M0.277466 38.2759H229.735V267.724H0.277466V38.2759Z" fill="white"/>
</mask>
<g mask="url(#mask0_2023_2)">
<mask id="mask1_2023_2" style="mask-type:luminance" maskUnits="userSpaceOnUse" x="0" y="38" width="230" height="230">
<path d="M115.011 38.2759L151.515 116.496L229.735 153L151.515 189.504L115.011 267.724L78.4976 189.504L0.277466 153L78.4976 116.496L115.011 38.2759Z" fill="white"/>
</mask>
<g mask="url(#mask1_2023_2)">
<path d="M0.277466 38.2759H229.735V267.724H0.277466V38.2759Z" fill="#2663EA"/>
</g>
</g>
<path d="M280.027 13.542L268.076 11.4944V3.04319L297.302 -0.419189H297.749L301.844 2.55921L301.993 37.5553L300.913 51.2187C304.134 48.2962 308.545 45.5784 314.13 43.0654C319.733 40.5617 325.634 39.3052 331.814 39.3052C338.413 39.3052 343.541 40.5337 347.19 42.9909C350.857 45.4481 353.426 49.1897 354.897 54.1971C356.358 59.2139 357.093 65.9153 357.093 74.3013V117.451L367.145 118.866V128.285H325.857V118.866L334.941 117.451V74.3013C334.941 68.8471 334.569 64.6029 333.824 61.5687C333.099 58.5437 331.777 56.3006 329.841 54.83C327.905 53.3688 325.057 52.6335 321.315 52.6335C318.058 52.6335 314.735 53.3967 311.338 54.9045C307.931 56.4216 304.934 58.218 302.328 60.3028V117.451L311.896 118.866V128.285H271.241V118.866L280.027 117.6V13.542Z" fill="black"/>
<path d="M377.814 84.8003C377.814 74.9716 379.768 66.6134 383.696 59.7073C387.615 52.7825 392.864 47.5703 399.444 44.0707C406.043 40.5711 413.219 38.8213 420.963 38.8213C434.143 38.8213 444.316 42.8794 451.492 50.9955C458.659 59.093 462.251 70.0944 462.251 84.0184C462.251 93.9774 460.287 102.429 456.369 109.372C452.441 116.325 447.21 121.5 440.658 124.897C434.124 128.294 426.939 129.997 419.102 129.997C406.015 129.997 395.87 125.958 388.648 117.86C381.425 109.744 377.814 98.7243 377.814 84.8003ZM420.33 119.796C432.169 119.796 438.089 108.395 438.089 85.5821C438.089 73.6685 436.674 64.603 433.845 58.367C431.015 52.1403 426.408 49.0223 420.032 49.0223C407.896 49.0223 401.827 60.4333 401.827 83.2366C401.827 95.1781 403.316 104.262 406.295 110.489C409.273 116.697 413.945 119.796 420.33 119.796Z" fill="black"/>
<path d="M467.266 41.1667H507.773V50.1019L496.79 52.0007L508.405 93.7354L512.166 110.861L515.628 93.5865L529.738 41.1667H548.725L564.25 93.5865L568.048 110.861L571.808 93.7354L582.791 52.1496L571.324 50.1019V41.1667H604.905V50.1019L596.901 51.8517L573.074 129.551H555.017L539.157 78.6945L535.546 60.0051L532.717 78.6945L518.122 129.551H499.917L474.787 51.8517L467.266 50.1019V41.1667Z" fill="black"/>
<path d="M682.762 85.433H618.875V70.6899H682.762V85.433Z" fill="black"/>
<path d="M733.772 129.7C727.164 129.7 722.287 128.192 719.141 125.158C716.013 122.105 714.45 117.293 714.45 110.712V53.1176H704.249V44.927C705.086 44.6292 706.604 44.0893 708.791 43.2889C710.997 42.4978 712.681 41.8369 713.854 41.3157C715.613 39.9754 717.13 37.6299 718.396 34.2792C719.336 32.0734 721.058 26.6285 723.571 17.9353H736.118L736.751 41.0179H760.764V53.1176H736.899V97.1978C736.899 103.062 737.058 107.194 737.383 109.595C737.7 112.006 738.389 113.56 739.431 114.249C740.474 114.919 742.298 115.254 744.904 115.254C747.529 115.254 750.246 114.975 753.057 114.398C755.887 113.83 758.241 113.123 760.131 112.276L763.109 121.062C760.177 123.277 755.887 125.269 750.228 127.056C744.587 128.815 739.105 129.7 733.772 129.7Z" fill="black"/>
<path d="M771.45 84.8003C771.45 74.9716 773.404 66.6134 777.332 59.7073C781.25 52.7825 786.5 47.5703 793.08 44.0707C799.679 40.5711 806.855 38.8213 814.599 38.8213C827.779 38.8213 837.952 42.8794 845.128 50.9955C852.295 59.093 855.887 70.0944 855.887 84.0184C855.887 93.9774 853.923 102.429 850.005 109.372C846.077 116.325 840.846 121.5 834.294 124.897C827.76 128.294 820.575 129.997 812.738 129.997C799.651 129.997 789.506 125.958 782.284 117.86C775.061 109.744 771.45 98.7243 771.45 84.8003ZM813.966 119.796C825.805 119.796 831.725 108.395 831.725 85.5821C831.725 73.6685 830.31 64.603 827.481 58.367C824.651 52.1403 820.044 49.0223 813.668 49.0223C801.531 49.0223 795.463 60.4333 795.463 83.2366C795.463 95.1781 796.952 104.262 799.931 110.489C802.909 116.697 807.581 119.796 813.966 119.796Z" fill="black"/>
<path d="M310.63 326.125C296.604 326.125 286.449 323.928 280.176 319.535C273.894 315.142 270.757 309.185 270.757 301.665C270.757 297.365 272.19 293.307 275.076 289.491C277.952 285.665 281.423 282.817 285.5 280.928C280.679 278.098 278.278 273.612 278.278 267.45C278.278 263.876 279.432 260.507 281.74 257.324C284.048 254.122 287.036 251.628 290.712 249.841C284.951 247.663 280.66 244.321 277.831 239.826C275.001 235.312 273.587 229.96 273.587 223.78C273.587 217.823 275.336 212.629 278.836 208.18C282.336 203.741 287.036 200.316 292.946 197.905C298.875 195.504 305.288 194.294 312.194 194.294C324.424 194.294 333.536 196.658 339.521 201.367C340.88 199.58 343.179 197.905 346.408 196.341C349.657 194.759 353.007 193.958 356.46 193.958H361.97V211.084H345.775C347.358 214.435 348.158 218 348.158 221.769C348.251 231.282 344.9 238.886 338.106 244.591C331.302 250.306 321.985 253.154 310.146 253.154C305.232 253.154 301.099 252.782 297.749 252.037C296.706 253.405 295.897 254.848 295.329 256.356C294.752 257.873 294.473 259.213 294.473 260.377C294.473 263.83 295.701 266.185 298.158 267.45C300.615 268.698 305.027 269.312 311.412 269.312H328.203C349.545 269.312 360.221 277.056 360.221 292.543C360.221 299.021 357.912 304.829 353.296 309.967C348.698 315.105 342.583 319.07 334.941 321.881C327.319 324.71 319.212 326.125 310.63 326.125ZM311.747 243.4C321.474 243.4 326.341 236.764 326.341 223.482C326.341 216.687 325.094 211.699 322.618 208.515C320.161 205.314 316.42 203.713 311.412 203.713C306.498 203.713 302.7 205.314 300.02 208.515C297.358 211.699 296.036 216.473 296.036 222.849C296.036 236.55 301.267 243.4 311.747 243.4ZM312.976 315.291C319.575 315.291 325.28 313.69 330.102 310.488C334.914 307.305 337.324 302.903 337.324 297.272C337.324 292.748 336.142 289.5 333.787 287.517C331.423 285.526 327.207 284.539 321.129 284.539H304.041C301.435 284.539 299.024 284.371 296.818 284.055C293.989 287.824 292.574 292.329 292.574 297.569C292.574 303.321 294.137 307.715 297.265 310.749C300.411 313.774 305.651 315.291 312.976 315.291Z" fill="black"/>
<path d="M441.054 285.321C437.601 285.321 435.097 284.585 433.534 283.124C431.97 281.663 431.188 279.466 431.188 276.534V272.29C428.359 275.743 424.375 278.805 419.237 281.486C414.118 284.139 408.999 285.47 403.861 285.47C393.809 285.47 386.633 282.891 382.343 277.726C378.043 272.541 375.902 263.979 375.902 252.037V207.771L368.083 205.574V196.639L394.74 194.591H394.926L398.054 196.788V252.037C398.054 259.688 398.994 265.03 400.883 268.083C402.763 271.117 406.263 272.625 411.382 272.625C417.562 272.625 423.314 270.224 428.657 265.403V207.771L418.158 205.425V196.639L446.564 194.591H446.862L450.622 196.788V274.04H459.409L459.26 282.975C458.831 283.078 456.896 283.487 453.452 284.204C449.999 284.948 445.866 285.321 441.054 285.321Z" fill="black"/>
<path d="M489.225 182.194C485.474 182.194 482.495 181.105 480.289 178.917C478.102 176.712 477.013 173.882 477.013 170.429C477.013 166.464 478.26 163.169 480.773 160.563C483.277 157.938 486.628 156.617 490.825 156.617C494.995 156.617 498.169 157.752 500.356 160.005C502.562 162.238 503.67 165.031 503.67 168.381C503.67 172.579 502.413 175.93 499.91 178.433C497.397 180.946 493.897 182.194 489.411 182.194H489.225ZM480.922 211.382L469.791 208.404V197.905L498.495 194.442H498.83L503.223 197.57V273.072L513.722 274.338V283.757H469.939V274.338L480.922 272.923V211.382Z" fill="black"/>
<path d="M557.834 285.469C551.328 285.469 545.511 283.924 540.374 280.853C535.254 277.781 531.187 272.997 528.162 266.519C525.128 260.023 523.62 251.907 523.62 242.171C523.62 233.385 525.416 225.362 529.018 218.083C532.639 210.814 537.954 205.034 544.953 200.734C551.971 196.443 560.403 194.293 570.232 194.293C574.197 194.293 577.957 194.721 581.513 195.559V169.014L566.137 166.818V158.18L598.49 155.053H598.936L603.367 158.329V274.189H611.818V283.124C604.297 284.688 598.061 285.469 593.128 285.469C589.796 285.469 587.432 284.92 586.017 283.831C584.603 282.742 583.895 280.574 583.895 277.316V272.923C581.159 276.599 577.436 279.615 572.726 281.97C568.035 284.297 563.065 285.469 557.834 285.469ZM565.988 272.439C569.432 272.439 572.484 271.75 575.146 270.354C577.827 268.939 579.949 267.245 581.513 265.254V208.106C580.787 207.063 579.251 206.188 576.896 205.462C574.532 204.718 572 204.345 569.301 204.345C562.6 204.345 557.22 207.249 553.181 213.057C549.16 218.865 547.149 228.154 547.149 240.905C547.149 251.581 548.871 259.511 552.324 264.695C555.768 269.861 560.329 272.439 565.988 272.439Z" fill="black"/>
<path d="M662.825 285.47C649.022 285.47 638.747 281.43 631.999 273.333C625.241 265.216 621.872 254.15 621.872 240.124C621.872 230.723 623.622 222.57 627.121 215.663C630.621 208.739 635.554 203.452 641.939 199.803C648.343 196.136 655.723 194.293 664.091 194.293C674.534 194.293 682.594 197.048 688.253 202.559C693.912 208.05 696.835 215.868 697.039 226.013C697.039 232.92 696.63 238.039 695.811 241.389H644.768C645.187 250.902 647.43 258.292 651.507 263.578C655.602 268.865 661.42 271.508 668.968 271.508C673.035 271.508 677.242 270.838 681.589 269.498C685.926 268.139 689.351 266.51 691.864 264.621L695.811 273.258C692.981 276.292 688.402 279.085 682.073 281.635C675.744 284.185 669.322 285.47 662.825 285.47ZM675.074 231.97C675.269 229.048 675.371 226.786 675.371 225.194C675.371 211.298 670.718 204.346 661.41 204.346C656.291 204.346 652.326 206.393 649.497 210.488C646.667 214.565 645.085 221.723 644.768 231.97H675.074Z" fill="black"/>
<path d="M727.034 270.875C727.853 272.141 729.752 273.323 732.73 274.412C735.727 275.511 738.743 276.05 741.777 276.05C746.692 276.05 750.377 275.036 752.834 272.998C755.292 270.969 756.52 268.269 756.52 264.919C756.52 261.475 755.003 258.683 751.978 256.542C748.944 254.383 743.825 251.739 736.602 248.612L732.209 246.713C724.986 243.688 719.588 240.03 716.014 235.73C712.459 231.44 710.69 225.892 710.69 219.089C710.69 214.379 712.105 210.172 714.934 206.468C717.764 202.745 721.729 199.841 726.848 197.756C731.986 195.652 737.905 194.591 744.607 194.591C749.521 194.591 753.728 194.917 757.228 195.559C760.746 196.183 764.45 197.011 768.322 198.054C770.407 198.798 771.971 199.226 773.013 199.32V219.87H760.616L757.004 207.957C756.381 206.914 754.966 205.974 752.76 205.127C750.573 204.29 748.069 203.862 745.24 203.862C740.939 203.862 737.505 204.783 734.927 206.617C732.367 208.459 731.092 210.991 731.092 214.211C731.092 217.143 731.986 219.573 733.773 221.509C735.56 223.445 737.496 224.952 739.581 226.013C741.665 227.056 745.537 228.787 751.196 231.188C756.855 233.599 761.528 235.907 765.232 238.113C768.955 240.3 772.045 243.139 774.502 246.639C776.959 250.138 778.188 254.411 778.188 259.446C778.188 267.19 775.145 273.472 769.067 278.284C763.008 283.078 754.286 285.47 742.894 285.47C737.533 285.47 732.73 284.995 728.486 284.055C724.26 283.115 719.383 281.858 713.855 280.295L710.392 279.215V258.478H723.423L727.034 270.875Z" fill="black"/>
<path d="M805.812 285.172C802.554 285.172 799.725 284.055 797.323 281.821C794.913 279.569 793.712 276.711 793.712 273.258C793.712 269.386 795.099 266.222 797.882 263.764C800.655 261.289 804.034 260.042 808.008 260.042C811.778 260.042 814.756 261.224 816.943 263.578C819.149 265.942 820.257 268.744 820.257 271.992C820.257 276.069 818.917 279.28 816.236 281.635C813.574 283.99 810.102 285.172 805.812 285.172Z" fill="black"/>
<path d="M835.008 240.608C835.008 231.598 836.804 223.593 840.406 216.594C844.027 209.576 849.211 204.104 855.969 200.176C862.716 196.257 870.581 194.293 879.572 194.293C883.761 194.293 887.372 194.61 890.406 195.224C893.431 195.848 896.828 196.695 900.607 197.756L905.149 198.984L904.219 225.827H890.555L886.646 208.59C886.022 205.863 882.932 204.494 877.376 204.494C871.512 204.494 866.933 207.063 863.638 212.201C860.362 217.32 858.658 225.325 858.537 236.214C858.537 247.709 860.52 256.523 864.494 262.648C868.487 268.781 873.774 271.843 880.354 271.843C888.321 271.843 895.656 269.703 902.357 265.403L905.968 273.556C903.232 276.488 899.062 279.206 893.459 281.709C887.875 284.213 881.825 285.47 875.328 285.47C861.944 285.47 851.883 281.337 845.135 273.072C838.377 264.807 835.008 253.992 835.008 240.608Z" fill="black"/>
<path d="M918.514 240.272C918.514 230.444 920.468 222.086 924.396 215.179C928.315 208.255 933.564 203.042 940.145 199.543C946.744 196.043 953.92 194.293 961.663 194.293C974.843 194.293 985.016 198.352 992.192 206.468C999.359 214.565 1002.95 225.567 1002.95 239.491C1002.95 249.45 1000.99 257.901 997.069 264.844C993.141 271.797 987.911 276.972 981.358 280.369C974.824 283.766 967.639 285.47 959.802 285.47C946.716 285.47 936.57 281.43 929.348 273.333C922.125 265.216 918.514 254.196 918.514 240.272ZM961.031 275.269C972.87 275.269 978.789 263.867 978.789 241.054C978.789 229.141 977.374 220.075 974.545 213.839C971.715 207.612 967.108 204.494 960.733 204.494C948.596 204.494 942.527 215.905 942.527 238.709C942.527 250.65 944.016 259.734 946.995 265.961C949.973 272.169 954.646 275.269 961.031 275.269Z" fill="black"/>
<path d="M1017.24 274.338L1026.02 272.923V211.382L1015.97 208.59V197.756L1042.03 194.442L1043.89 195.708L1046.28 200.883V207.473C1049.72 204.122 1054.66 201.172 1061.09 198.612C1067.52 196.062 1073.09 194.777 1077.81 194.777C1083.47 194.777 1088.05 195.727 1091.55 197.607C1095.05 199.468 1097.69 202.4 1099.48 206.393C1102.92 203.247 1107.46 200.529 1113.1 198.24C1118.76 195.932 1124.32 194.777 1129.78 194.777C1139.09 194.777 1145.68 197.495 1149.55 202.931C1153.42 208.366 1155.36 217.255 1155.36 229.587V272.923L1165.56 274.338V283.757H1124.91V274.338L1133.06 272.923V230.22C1133.06 222.058 1132.09 216.334 1130.16 213.057C1128.22 209.763 1124.53 208.106 1119.1 208.106C1116.17 208.106 1113.15 208.767 1110.05 210.079C1106.97 211.373 1104.22 212.964 1101.82 214.844C1102.57 218.819 1102.94 223.798 1102.94 229.774V272.923L1112.66 274.338V283.757H1071.7V274.338L1080.34 272.923V229.774C1080.34 224.319 1079.99 220.047 1079.3 216.966C1078.63 213.895 1077.34 211.643 1075.46 210.228C1073.57 208.813 1070.86 208.106 1067.31 208.106C1063.96 208.106 1060.63 208.869 1057.33 210.377C1054.03 211.894 1051.08 213.69 1048.47 215.775V272.923L1057.71 274.338V283.757H1017.24V274.338Z" fill="black"/>
</g>
<defs>
<clipPath id="clip0_2023_2">
<rect width="1166" height="326" fill="white"/>
</clipPath>
</defs>
</svg>
